#!OML:ASF E:\Style6\Style6.ASF
:FULLY-SPECIFIED
:DEGREES
3055
root 0.921099 17.5455 -1.5772 24.6127 2.91969 2.12711
lowerback 11.8891 -2.79034 3.57303
upperback 14.4654 -3.80038 6.37543
thorax 9.21482 -1.9685 5.05172
lowerneck 16.6745 15.3297 2.05426
upperneck 16.181 20.5029 -7.44686
head 3.41246 10.0269 -2.85495
rclavicle 0 9.54166e-015
rhumerus 7.97925 -3.78682 -79.2981
rradius 40.5875
rwrist 23.0797
rhand -5.11205 8.98211
rfingers 7.12502
rthumb 20.6857 -19.9355
lclavicle 0 9.54166e-015
lhumerus 36.9431 -25.6558 76.0403
lradius 32.0545
lwrist -21.0819
lhand 9.98974 26.6149
lfingers 7.12502
lthumb 35.1166 53.1437
rfemur -49.9931 -5.50197 15.9997
rtibia 35.5593
rfoot -4.30081 -11.7362
rtoes -14.3178
lfemur -49.3265 3.85368 -25.1104
ltibia 35.1221
lfoot -5.82944 -2.69351
ltoes -16.5666
3056
root 0.921012 17.5418 -1.57724 24.5962 2.91192 2.17804
lowerback 11.8895 -2.82765 3.49394
upperback 14.4531 -3.85435 6.40476
thorax 9.21265 -2.00541 5.13045
lowerneck 16.6093 15.3818 2.00623
upperneck 16.2927 20.5714 -7.44315
head 3.45609 10.0537 -2.83765
rclavicle 4.29375e-014 -1.20066e-013
rhumerus 7.97246 -3.69117 -79.2501
rradius 40.6186
rwrist 23.0223
rhand -5.01882 8.96772
rfingers 7.12502
rthumb 20.7753 -19.9401
lclavicle 4.29375e-014 -1.20066e-013
lhumerus 37.311 -25.6161 75.7828
lradius 31.8471
lwrist -21.0492
lhand 9.98467 26.6613
lfingers 7.12502
lthumb 35.1118 53.1912
rfemur -50.0041 -5.57874 15.9789
rtibia 35.6016
rfoot -4.26498 -11.6712
rtoes -14.2693
lfemur -49.3283 3.86325 -25.1771
ltibia 35.1682
lfoot -5.8513 -2.72749
ltoes -16.2392
3057
root 0.920508 17.5408 -1.57874 24.5616 2.94977 2.13086
lowerback 11.914 -2.88196 3.5069
upperback 14.448 -3.92592 6.46728
thorax 9.20523 -2.04474 5.19624
lowerneck 16.5206 15.4286 1.98485
upperneck 16.4042 20.6464 -7.51515
head 3.51307 10.0841 -2.84316
rclavicle 1.59028e-015 -4.85035e-014
rhumerus 7.99079 -3.513 -79.1924
rradius 40.6492
rwrist 22.9647
rhand -4.95449 9.00593
rfingers 7.12502
rthumb 20.8371 -19.8951
lclavicle 1.59028e-015 -4.85035e-014
lhumerus 37.5898 -25.4554 75.6186
lradius 31.6725
lwrist -21.2361
lhand 9.95296 26.557
lfingers 7.12502
lthumb 35.0817 53.0939
rfemur -49.9846 -5.6328 16.0698
rtibia 35.6403
rfoot -4.24734 -11.6467
rtoes -14.0289
lfemur -49.3224 3.86752 -25.1162
ltibia 35.2097
lfoot -5.88335 -2.75438
ltoes -16.207
3058
root 0.919673 17.5401 -1.5808 24.5506 2.95928 2.11719
lowerback 11.857 -2.90662 3.52827
upperback 14.4629 -3.96408 6.47926
thorax 9.25803 -2.06271 5.19685
lowerneck 16.4378 15.4304 2.01217
upperneck 16.493 20.6686 -7.57815
head 3.56224 10.0915 -2.85404
rclavicle 1.74931e-014 -4.37326e-014
rhumerus 8.05356 -3.49523 -79.2374
rradius 40.5756
rwrist 23.0104
rhand -4.99983 9.05852
rfingers 7.12502
rthumb 20.7936 -19.8473
lclavicle 1.74931e-014 -4.37326e-014
lhumerus 37.9286 -25.3486 75.3897
lradius 31.5201
lwrist -21.4423
lhand 9.96605 26.4345
lfingers 7.12502
lthumb 35.0941 52.9686
rfemur -49.9979 -5.64503 16.1019
rtibia 35.6767
rfoot -4.25418 -11.6469
rtoes -14.3482
lfemur -49.3321 3.87009 -25.0971
ltibia 35.225
lfoot -5.8643 -2.762
ltoes -16.2299
3059
root 0.918283 17.5399 -1.58236 24.5098 2.91566 2.14647
lowerback 11.8234 -2.90466 3.51691
upperback 14.4875 -3.96587 6.45053
thorax 9.30363 -2.06287 5.17046
lowerneck 16.4276 15.4189 2.09923
upperneck 16.5277 20.6749 -7.63605
head 3.58859 10.0973 -2.87899
rclavicle -2.22639e-014 -3.65764e-014
rhumerus 8.08839 -3.58262 -79.3011
rradius 40.4785
rwrist 23.0937
rhand -4.98733 9.18387
rfingers 7.12502
rthumb 20.8056 -19.7206
lclavicle -2.22639e-014 -3.65764e-014
lhumerus 38.4202 -25.4576 74.9408
lradius 31.314
lwrist -21.3187
lhand 9.98238 26.4999
lfingers 7.12502
lthumb 35.1096 53.0303
rfemur -49.9902 -5.61507 16.0499
rtibia 35.7113
rfoot -4.29595 -11.6242
rtoes -14.231
lfemur -49.2767 3.88199 -25.1271
ltibia 35.202
lfoot -5.8504 -2.74182
ltoes -16.2244
